<?xml version="1.0" encoding="UTF-8"?>
<svg id="Layer_2" data-name="Layer 2" xmlns="http://www.w3.org/2000/svg" viewBox="0 0 542.98 167.93">
  <defs>
    <style>
      .cls-1 {
        fill: none;
        stroke: #ed1c24;
        stroke-width: .5px;
      }

      .cls-2 {
        fill: #ec3935;
      }

      .cls-3 {
        fill: #ed1c24;
      }

      .cls-4 {
        fill: #fff;
      }
    </style>
  </defs>
  <g id="Layer_2-2" data-name="Layer 2">
    <g id="Layer_1-2" data-name="Layer 1-2">
      <g>
        <path class="cls-2" d="M.39,0s471.5,1.56,475.35,1.56,5.02,1.73,7.46,5.69c0,0,11.35,14.18,12.45,16.48,1.13,2.23,1.66,3.11,1.63,7.36,0,4.24-.28,88.39-.32,95.99,0,7.64-3.93,21.26-22.57,21.19-27.76-.07-344.31-1.13-356.27-1.17-11.92-.04-23.13,20.87-37.28,20.83-11.11-.04-22.99-21.04-34.91-21.08-14.43-.04-15.53-.07-17.79-.07s-2.76-.28-4.42-2.02c-1.66-1.7-18.29-18.75-20.48-21.01-2.16-2.26-3.25-5.38-3.25-9.62S.39,0,.39,0H.39Z"/>
        <path class="cls-4" d="M481.86,10.36s-.32,98.57-.35,105.08c0,6.51-1.98,11.88-11.14,11.85-9.16,0-348.77-1.13-356.55-1.17-16.09-.04-29.25,24.3-44.21,24.23-15-.04-24.65-23.59-40.99-23.66-16.41-.07-17.79-.07-17.79-.07l16.62,16.76s13.62.04,18.85.07c11.67.04,25.22,21.04,34.66,21.08,11.39.04,25.36-20.87,35.9-20.83,0,0,348.77,1.13,358.5,1.17,9.73,0,19.21-5.59,19.24-21.15,0,0,.28-87.25.28-91.22s-1.1-5.94-2.19-7.64-10.75-14.5-10.75-14.5h-.07Z"/>
        <path class="cls-4" d="M32.65,29.96c0-2.19-1.27-4.39-4.39-4.39-1.95,0-3.86.04-6.79.04-3.64,0-4.24,2.37-4.28,5.2l-.32,64.9s-.85,5.45,5.48,5.48c4.85,0,22.49.07,24.33.07,2.62,0,4.31-1.27,4.31-3.96v-7.22s0-2.55-3.32-2.58c-3.32,0-10.96,0-13.58-.04-2.65,0-2.09-1.98-2.09-3.82,0-4.67.6-53.65.6-53.65h0l.04-.04Z"/>
        <path class="cls-4" d="M43.5,48.99s-1.1-5.38,3.4-5.38h9.55c1.38,0,2.62,1.13,3.18,3.71.88,2.76,6.4,18.64,8.56,24.51.32.88.5,1.7,1.1,1.73.6,0,.78-.74.99-1.49,1.8-6.37,9.2-25.18,9.8-26.42.67-1.38,1.38-1.95,3.47-1.95h8.74s3.89-.25,2.48,4.28-23.41,65.75-23.41,65.75c0,0-.71,2.97-4.07,2.94h-7.75c-3.47,0-4.14-2.3-3.61-4.1.85-3.25,4.63-13.3,4.63-13.3l-17.05-50.36h0v.07Z"/>
        <path class="cls-4" d="M110.6,82.2c-.42-1.7-1.49-7.92-.35-19.98,1.17-12.06,8.24-11.04,8.24-11.04,3.64,0,7.92,1.73,8.98,11.39,1.1,9.62.78,16.69-.18,21.08-.99,4.39-1.56,8.77-7.57,9.27-7.89.71-8.74-9.05-9.13-10.72h0ZM118.66,41.98c-4.74,0-17.79.25-22,14.68-4.21,14.43-3.57,37.38,10.58,43.93,13.05,6.05,26.24,1.66,31.23-6.72,5.02-8.35,5.06-15.14,5.06-20.37,0-8.21-.81-20.16-8.24-26.1-6.22-4.99-11.25-5.45-16.62-5.48h0v.07Z"/>
        <path class="cls-4" d="M149.64,98.54c0,2.02,1.13,3.43,2.9,3.43h9.27c1.59,0,3.22-1.17,3.22-3.4s.64-33.88.64-33.88c0,0,0-9.55,7.6-9.51,6.9,0,6.65,5.77,6.65,7.64s-.11,34.66-.11,35.79.39,3.22,4.35,3.22h7.71c1.34,0,3.43-.95,3.47-3.93,0-1.91.74-35.69.74-38.55,0-5.62-3.18-15.81-16.2-15.85-6.26,0-11.28,3.78-13.4,5.66-.71.67-.88.35-.85-.39v-1.95c0-1.49-.92-2.83-3.54-2.83h-7.67c-2.94,0-4.1,1.98-4.1,3.36s-.67,51.18-.67,51.18h0Z"/>
        <path class="cls-4" d="M216.63,54.54c-1.17,2.65.5,6.15,13.72,11.6,11.78,4.88,16.52,11.21,15.53,21.01-1.17,12.06-17.68,21.01-35.65,13.33-14.36-7.39-7.75-18.92.28-15.81,2.79,1.03,8.59,7.85,16.73,6.3,5.41-1.45,2.41-5.52,1.7-6.26-2.69-3.32-12.38-5.02-17.15-8.13-4.03-2.48-11.74-7.82-9.9-19.06,1.8-11.25,11.21-16.2,23.27-15.63,7.67.32,21.54,5.59,17.65,15.14-1.91,3.18-6.05,2.72-7.6,1.98-1.2-.6-5.8-3.86-7.89-5.09-2.09-1.27-8.63-4.07-10.65.6h0l-.04.04Z"/>
        <path class="cls-4" d="M274.85,26.42c-2.09,0-3.75,1.17-4.17,4.56-.42,3.4-9.9,64.76-10.22,66.88s.64,4.46,3.4,4.49h9.05c1.8,0,3.32-.42,3.89-3.4.53-2.97,4.56-33.03,4.7-34.59.11-1.59.42-1.98,1.17-2.12.71-.07,1.06.64,1.45,2.69.39,2.02,4.77,30.91,5.41,33.81.6,2.86,1.03,3.61,3.43,3.61h8.31c1.34,0,3.15.46,3.96-3.61.85-4.03,6.61-33.21,6.79-34.8.21-1.59.71-1.91,1.34-2.02.67-.11,1.27.25,1.59,1.91.32,1.7,4.17,34.02,4.6,35.9.39,1.91,1.52,2.69,2.86,2.69s8.13,0,9.87.04c1.8,0,3.47-1.06,3.15-3.5-.32-2.44-8.88-64.3-9.34-67.27-.53-2.97-2.09-5.23-6.15-5.23h-7.99c-3.36,0-4.81,2.23-5.55,5.09s-6.93,33.14-7.11,34.17c-.18,1.06-.64,1.59-1.41,1.59-.35,0-.92-.53-1.13-1.7-1.38-7.11-5.94-31.48-6.37-33.67-.92-4.7-3.43-5.48-5.31-5.48h-10.19l-.04-.04Z"/>
        <path class="cls-4" d="M357.89,42.73c8.13-.95,16.38,1.2,21.43,4.42,5.09,3.18,7.18,9.27,7.14,14.15,0,3.86-.53,35.16-.57,37.6,0,2.44-1.45,3.61-2.69,3.61h-7.71c-2.94,0-3.32-1.8-3.36-2.33v-1.7c0-.74-.35-1.06-1.03-1.06-4.49,0-9.09,9.83-22.32,5.34-13.4-4.92-11.64-22.35-9.16-26.56,3.89-6.72,8.13-8.45,21.26-11.21,11.99-2.48,11.78-5.38,11.78-6.54,0-1.1-.21-3.29-5.48-4.88-5.13-1.56-10.12,1.1-10.12,1.1-4.17,1.7-4.28,4.46-8.17,5.73-9.2,2.94-9.2-5.8-8.52-8.21,1.59-5.31,9.3-8.45,17.44-9.37h0l.07-.07ZM358,76.01c-4.67,4.6-3.08,11.85.35,13.58,4.53,2.37,12.73-.81,13.55-7.07.71-5.62.04-13.16.04-13.16-4.6,3.29-10.54,3.29-13.97,6.65h.04Z"/>
        <path class="cls-4" d="M411.55,32.01c0-4.81-3.78-8.7-8.49-8.7s-8.56,3.86-8.56,8.67,3.82,8.74,8.52,8.77c4.7,0,8.52-3.89,8.56-8.7h0l-.04-.04Z"/>
        <path class="cls-4" d="M399.74,44.85c-2.69,0-3.64,1.91-3.71,3.71-.14,1.8-.5,48.21-.28,50.65.21,2.48,1.77,3.32,3.01,3.32h8.1c1.45,0,3.04-.53,3.08-3.5,0-2.97.95-48.24.92-50.54-.14-2.33-1.27-3.71-3.57-3.71s-7.5.07-7.5.07h-.04Z"/>
        <path class="cls-4" d="M455.02,26.35h8.84c2.09,0,3.32,2.23,3.32,3.78s-.78,69.71-.78,69.71c0,1.52-.81,2.86-3.4,2.86h-8.28c-1.59,0-3.25-.64-3.25-2.44,0-2.05.07-2.55-.64-2.86-2.83-1.27-1.41,7.25-16.23,6.33-20.83-1.27-18.5-29.57-18.18-38.37.32-8.84,4.28-20.41,16.69-22.14,12.41-1.77,17.05,4.17,17.05,4.17,1.17.95,1.59-.42,1.59-1.34,0-.99.04-15.07.07-16.59,0-.99,1.34-3.08,3.15-3.08h0l.04-.04ZM435.46,59.24c-1.45,3.29-2.23,7.39-2.41,13.76-.18,6.37.11,16.84,6.19,19.66,3.89,1.84,7.5.04,9.3-1.91,1.38-1.59,2.94-5.27,2.94-8.21,0-1.7.07-17.3.07-19.42s-.57-4.77-2.19-6.51c-3.57-3.86-11.49-2.76-13.9,2.62h0Z"/>
        <path class="cls-1" d="M542.73,21.57c0,9.16-7.32,16.55-16.3,16.52-8.98,0-16.23-7.46-16.2-16.66,0-9.16,7.32-16.55,16.3-16.52,8.98,0,16.23,7.46,16.2,16.66Z"/>
        <path class="cls-3" d="M520.8,13.26c1.31-.25,3.18-.42,4.88-.42,2.72,0,4.53.57,5.73,1.7.95.85,1.56,2.23,1.52,3.82,0,2.62-1.66,4.39-3.71,5.09v.11c1.49.53,2.37,1.98,2.86,4.07.64,2.79,1.1,4.77,1.45,5.52h-2.62c-.32-.57-.74-2.3-1.27-4.81-.6-2.79-1.66-3.82-3.96-3.93h-2.41v8.74h-2.55l.07-19.84v-.04ZM523.35,22.42h2.58c2.72,0,4.46-1.49,4.46-3.82,0-2.58-1.8-3.75-4.49-3.75-1.24,0-2.09.11-2.55.21v7.36Z"/>
      </g>
    </g>
  </g>
</svg>