<?xml version="1.0" encoding="UTF-8"?>
<svg id="Layer_2" data-name="Layer 2" xmlns="http://www.w3.org/2000/svg" viewBox="0 0 394.93 111">
  <defs>
    <style>
      .cls-1 {
        fill: #213065;
      }

      .cls-2 {
        fill: #ec1a59;
      }
    </style>
  </defs>
  <g id="Layer_1-2" data-name="Layer 1">
    <g>
      <path class="cls-1" d="M127.06,22.07h14.91v7.95c2.33-4.52,5.51-6.72,6.61-7.33,2.33-1.47,5.27-2.33,8.8-2.33,2.57,0,4.65.61,6.37,1.23l-1.95,13.94c-1.95-1.34-3.91-1.95-6.96-1.95-2.81,0-6.96.61-9.9,4.28-2.81,3.55-2.94,8.08-2.94,11.74v25.42h-14.93V22.07Z"/>
      <path class="cls-1" d="M207.88,22.07h14.91v52.93h-14.91v-6.85c-5.38,7.71-12.47,8.56-16.27,8.56-16.27,0-27.03-12.71-27.03-28.23s10.63-28.12,26.28-28.12c4.04,0,11.99.73,16.99,8.56v-6.85h.02ZM180,48.49c0,8.43,6.1,15.04,14.67,15.04s14.67-6.61,14.67-15.04-6.12-14.91-14.67-14.91-14.67,6.48-14.67,14.91Z"/>
      <path class="cls-1" d="M252.38,62.3h27.99v12.71h-54.16l30.08-40.22h-25.42v-12.71h51.59l-30.08,40.22Z"/>
      <path class="cls-1" d="M328.3,38.21c-3.18-2.94-7.09-4.65-12.23-4.65-9.9,0-14.91,7.22-14.91,14.91,0,8.67,6.48,15.04,15.41,15.04,3.29,0,7.71-.99,11.74-4.65v14.55c-2.94,1.47-7.58,3.29-13.7,3.29-8.32,0-15.65-3.18-20.42-7.71-4.04-3.8-8.43-10.39-8.43-20.29,0-9.29,3.8-16.75,9.18-21.52,6.48-5.75,13.94-6.85,19.08-6.85,5.51,0,10.03,1.1,14.31,3.18v14.67l-.04.02Z"/>
      <path class="cls-1" d="M386.02,27.83c5.25,4.76,8.92,12.1,8.92,20.79s-3.67,15.89-8.92,20.66c-4.52,4.15-11.37,7.46-21.4,7.46s-16.86-3.29-21.4-7.46c-5.25-4.76-8.92-12.1-8.92-20.66s3.67-16.01,8.92-20.79c4.52-4.15,11.37-7.46,21.4-7.46s16.88,3.29,21.4,7.46ZM379.54,48.6c0-8.32-6.37-15.04-14.91-15.04s-14.91,6.72-14.91,15.04,6.24,14.91,14.91,14.91,14.91-6.85,14.91-14.91Z"/>
    </g>
    <g>
      <path class="cls-1" d="M277.47,84.09h13.87v2.31h-11.45v10.03h10.94v2.31h-10.94v11.69h-2.4v-26.34h-.02Z"/>
      <path class="cls-1" d="M306.52,83.59c7.44,0,12.86,5.96,12.86,13.68s-5.42,13.64-12.86,13.64-12.94-5.88-12.94-13.64,5.45-13.68,12.94-13.68ZM316.87,97.27c0-7.17-5.01-11.33-10.35-11.33s-10.42,4.19-10.42,11.33,5.06,11.3,10.42,11.3,10.35-4.19,10.35-11.3Z"/>
      <path class="cls-1" d="M335.06,83.59c7.44,0,12.86,5.96,12.86,13.68s-5.42,13.64-12.86,13.64-12.94-5.88-12.94-13.64,5.45-13.68,12.94-13.68ZM345.4,97.27c0-7.17-5.01-11.33-10.35-11.33s-10.42,4.19-10.42,11.33,5.06,11.3,10.42,11.3,10.35-4.19,10.35-11.3Z"/>
      <path class="cls-1" d="M372.21,97.23c0,7.97-5.64,13.18-13.88,13.18h-5.88v-26.34h5.88c8.47,0,13.88,5.25,13.88,13.14v.02ZM358.41,108.12c6.51,0,11.28-3.93,11.28-10.85s-4.75-10.89-11.2-10.89h-3.65v21.72h3.57v.02Z"/>
      <path class="cls-1" d="M389.35,85.23v2.77c-1.88-1.38-4.11-2.08-6.12-2.08-2.79,0-5.38,1.41-5.38,4.39,0,2.59,1.99,3.83,5.88,5.6,4.08,1.92,6.98,3.61,6.98,7.61,0,4.82-3.96,7.48-8.39,7.48-3.02,0-5.6-1.25-7.17-2.48v-3.02c1.81,1.92,4.58,3.13,7.2,3.13,3.02,0,5.88-1.69,5.88-4.9,0-2.7-1.99-4-5.99-5.84-4.04-1.88-6.87-3.41-6.87-7.41,0-4.58,3.69-6.94,7.95-6.94,2.38,0,4.58.78,6.07,1.69l-.04-.02Z"/>
    </g>
    <g>
      <path class="cls-2" d="M71.41,92.27c-2.77-3.81-8.1-4.65-11.91-1.88-3.1,2.26-10.14,3.26-14.18,3.26h-.13c-2.88-.06-28.13-1.22-28.13-24.57,0-6.95,1.91-12.21,5.82-16.1,7.72-7.67,20.9-7.72,21.28-7.72h.3c3.68-.03,8.39.8,10.99,2.15l.04-.06c3.42,1.62,6.49,3.9,9.24,6.65.93.69,10.61-5.04,7.49-12.57-.29-.7-.71-1.41-1.2-2.12-.35-.81-.81-1.58-1.43-2.28-7.74-8.61-22.19-8.9-25.35-8.82h-.06c-2.48,0-20.87.42-33.21,12.56C3.7,47.92,0,57.45,0,69.08c0,16.71,8.25,29.69,23.24,36.56,10.48,4.81,20.61,5.05,21.72,5.06h.27c2.5,0,15.75-.3,24.29-6.51,3.81-2.77,4.65-8.1,1.88-11.91h0Z"/>
      <path class="cls-2" d="M119.58,101.2c-2.71-1.95-4.96-4.3-6.95-6.88l-2.98-4.44c-.19-.32-.4-.63-.59-.95l-.04.02-14.5-21.64c5.67-6.8,8.55-15.42,8.55-25.67,0-16.71-8.25-29.69-23.23-36.57C69.36.25,59.23.01,58.03,0H14.56l.09.17s-.83,16.69,12.01,16.69c1.04,0,1.98.08,2.87.19h28.38c2.88.06,28.13,1.22,28.13,24.57,0,6.95-1.91,12.21-5.82,16.1-7.82,7.75-21.16,7.7-21.29,7.72h-.3c-4.6.03-10.71-1.22-12.46-3.17-3.15-3.5-8.54-3.78-12.04-.63s-3.79,8.54-.63,12.04c7.36,8.16,20.72,8.82,24.77,8.82h.58c1.6.03,11.81-.18,22.05-4.93l13.66,20.37c3.76,7.42,9.24,11.83,13.42,12.82,8.5,1.99,12.47-8.74,11.63-9.56h-.01Z"/>
    </g>
  </g>
</svg>